<svg width="82" height="86" viewBox="0 0 82 86" fill="none" xmlns="http://www.w3.org/2000/svg">
<g clip-path="url(#clip0_350_813)">
<path d="M81.5822 22.6035L62.8175 12.0658C55.7165 8.07857 48.6163 4.08751 41.5166 0.0925997C41.4407 0.0369619 41.3497 0.005372 41.2555 0.00193174C41.1613 -0.00150853 41.0683 0.0233585 40.9885 0.0733057C35.5938 3.07657 30.1946 6.07661 24.7908 9.07344L0.78357 22.4125L0.00976562 22.8505H82.0001L81.5822 22.6035Z" fill="url(#paint0_linear_350_813)"/>
<path d="M5.43224 68.3933C5.29489 68.4087 5.15948 68.4319 5.01826 68.4531V71.5747H21.951C21.951 70.583 21.951 69.6261 21.951 68.6711C21.951 68.594 21.9413 68.5187 21.9336 68.4184C21.8485 68.3972 21.7982 68.3817 21.7402 68.374C20.1674 68.0885 19.206 66.9521 19.206 65.3682C19.206 56.5385 19.206 47.7081 19.206 38.8771C19.1783 38.1185 19.4439 37.3783 19.948 36.8096C20.4521 36.2408 21.156 35.8869 21.9143 35.8211V32.6089H9.22582C7.9413 32.6089 6.65872 32.6185 5.37421 32.6089C5.06082 32.6089 4.9873 32.7072 4.9873 33.0063C5.00472 33.8204 4.9873 34.6365 4.9873 35.4507C4.9873 35.5742 5.00278 35.6957 5.01245 35.8192C5.10725 35.8288 5.15754 35.8385 5.20591 35.8404C7.01854 35.9041 8.18698 37.108 8.18892 38.9273V65.3296C8.19859 67.0351 7.12494 68.2197 5.43224 68.3933Z" fill="url(#paint1_linear_350_813)"/>
<path d="M76.6166 68.3258C75.9622 68.1997 75.3724 67.85 74.9487 67.3369C74.525 66.8238 74.2939 66.1795 74.2952 65.5148C74.2952 56.5822 74.2952 47.6502 74.2952 38.7189C74.2946 38.0601 74.521 37.4211 74.9366 36.9089C75.3522 36.3968 75.9317 36.0427 76.5779 35.906C76.7249 35.8732 76.872 35.8366 77.0016 35.8057V32.6436H60.5389C60.5389 32.7806 60.5215 32.8828 60.5215 32.9851C60.5215 33.915 60.5215 34.8449 60.5215 35.8038C60.7672 35.8597 60.9703 35.8964 61.1676 35.9523C62.4792 36.3382 63.2685 37.461 63.2685 38.9562C63.2685 47.7319 63.2685 56.5089 63.2685 65.2872C63.2685 65.3894 63.2685 65.4936 63.2685 65.5958C63.2359 66.3403 62.9205 67.0446 62.3863 67.5657C61.8885 68.041 61.2458 68.337 60.5602 68.4068V71.5824C60.6093 71.5937 60.659 71.602 60.7091 71.6075C66.0484 71.6075 71.3876 71.6075 76.7269 71.6075C76.9706 71.6075 77.0383 71.5188 77.0364 71.2892C77.0267 70.475 77.0209 69.6609 77.0364 68.8467C77.0403 68.538 76.9822 68.3914 76.6166 68.3258Z" fill="url(#paint2_linear_350_813)"/>
<path d="M49.0786 68.3239C48.4286 68.202 47.8413 67.8582 47.4178 67.3517C46.9942 66.8451 46.7606 66.2072 46.7572 65.5476C46.7572 56.5906 46.7572 47.6329 46.7572 38.6745C46.7647 38.075 46.9613 37.4931 47.3189 37.0111C47.6765 36.5291 48.177 36.1715 48.7497 35.989C48.9799 35.9137 49.2198 35.8636 49.4519 35.796V32.6089H33.4767C33.3873 32.5954 33.2961 32.5986 33.2078 32.6185C33.1208 32.6552 32.9931 32.7458 32.9912 32.8114C32.9776 33.8031 32.9815 34.7967 32.9815 35.8038C34.7632 36.1742 35.7285 37.216 35.7304 38.7826C35.7382 47.6573 35.7382 56.5378 35.7304 65.4241C35.7468 66.1236 35.5085 66.8053 35.0596 67.343C34.6108 67.8808 33.9818 68.2381 33.2891 68.3489C33.0454 68.3972 32.9699 68.4859 32.9738 68.7348C32.9854 69.574 32.9892 70.4152 32.9738 71.2545C32.9738 71.5516 33.0705 71.6229 33.3607 71.6229C38.6225 71.6152 43.885 71.6152 49.1482 71.6229C49.4248 71.6229 49.5022 71.5323 49.4964 71.268C49.4829 70.4654 49.4809 69.6647 49.4964 68.8641C49.5003 68.5399 49.4423 68.3933 49.0786 68.3239Z" fill="url(#paint3_linear_350_813)"/>
<path d="M1.80659 81.4527C1.69 81.4604 1.57303 81.4604 1.45644 81.4527C1.15853 81.4141 1.08502 81.5472 1.08695 81.8385C1.10049 83.1312 1.08695 84.4238 1.08695 85.7164C1.09283 85.8154 1.10445 85.914 1.12177 86.0116H81.373V81.4527H1.80659Z" fill="url(#paint4_linear_350_813)"/>
<path d="M78.39 25.2988H3.63086V29.8268H78.39V25.2988Z" fill="url(#paint5_linear_350_813)"/>
<path d="M2.72168 78.798H79.2876V74.4995H2.72168V78.798Z" fill="url(#paint6_linear_350_813)"/>
</g>
<defs>
<linearGradient id="paint0_linear_350_813" x1="41.0049" y1="0.00161743" x2="41.0049" y2="22.8505" gradientUnits="userSpaceOnUse">
<stop stop-color="#F04B7E"/>
<stop offset="1" stop-color="#F858C6"/>
</linearGradient>
<linearGradient id="paint1_linear_350_813" x1="13.4692" y1="32.6089" x2="13.4692" y2="71.5747" gradientUnits="userSpaceOnUse">
<stop stop-color="#F04B7E"/>
<stop offset="1" stop-color="#F858C6"/>
</linearGradient>
<linearGradient id="paint2_linear_350_813" x1="68.779" y1="32.6436" x2="68.779" y2="71.6075" gradientUnits="userSpaceOnUse">
<stop stop-color="#F04B7E"/>
<stop offset="1" stop-color="#F858C6"/>
</linearGradient>
<linearGradient id="paint3_linear_350_813" x1="41.2352" y1="32.6007" x2="41.2352" y2="71.6229" gradientUnits="userSpaceOnUse">
<stop stop-color="#F04B7E"/>
<stop offset="1" stop-color="#F858C6"/>
</linearGradient>
<linearGradient id="paint4_linear_350_813" x1="41.2299" y1="81.4462" x2="41.2299" y2="86.0116" gradientUnits="userSpaceOnUse">
<stop stop-color="#F04B7E"/>
<stop offset="1" stop-color="#F858C6"/>
</linearGradient>
<linearGradient id="paint5_linear_350_813" x1="41.0104" y1="25.2988" x2="41.0104" y2="29.8268" gradientUnits="userSpaceOnUse">
<stop stop-color="#F04B7E"/>
<stop offset="1" stop-color="#F858C6"/>
</linearGradient>
<linearGradient id="paint6_linear_350_813" x1="41.0047" y1="74.4995" x2="41.0047" y2="78.798" gradientUnits="userSpaceOnUse">
<stop stop-color="#F04B7E"/>
<stop offset="1" stop-color="#F858C6"/>
</linearGradient>
<clipPath id="clip0_350_813">
<rect width="82" height="86" fill="white"/>
</clipPath>
</defs>
</svg>
