<svg width="46" height="43" viewBox="0 0 46 43" fill="none" xmlns="http://www.w3.org/2000/svg">
<path fill-rule="evenodd" clip-rule="evenodd" d="M9.5 4.83317C9.5 7.27243 7.48528 9.24984 5 9.24984C2.51472 9.24984 0.5 7.27243 0.5 4.83317C0.5 2.39391 2.51472 0.416504 5 0.416504C7.48528 0.416504 9.5 2.39391 9.5 4.83317ZM32 13.6665C35.5804 13.6665 39.0142 15.0625 41.5459 17.5473C44.0777 20.0322 45.5 23.4024 45.5 26.9165V42.3748H36.5V26.9165C36.5 25.7451 36.0259 24.6217 35.182 23.7934C34.3381 22.9652 33.1935 22.4998 32 22.4998C30.8065 22.4998 29.6619 22.9652 28.818 23.7934C27.9741 24.6217 27.5 25.7451 27.5 26.9165V42.3748H18.5V26.9165C18.5 23.4024 19.9223 20.0322 22.4541 17.5473C24.9858 15.0625 28.4196 13.6665 32 13.6665ZM9.5 42.375V15.875H0.5V42.375H9.5Z" fill="url(#paint0_linear_53_837)"/>
<defs>
<linearGradient id="paint0_linear_53_837" x1="23" y1="0.416504" x2="23" y2="42.375" gradientUnits="userSpaceOnUse">
<stop stop-color="#F04B7E"/>
<stop offset="1" stop-color="#F858C6"/>
</linearGradient>
</defs>
</svg>
