<svg width="63" height="76" viewBox="0 0 63 76" fill="none" xmlns="http://www.w3.org/2000/svg">
<g clip-path="url(#clip0_350_792)">
<path d="M41.6472 12.574C29.8172 12.5474 20.1903 22.2173 20.1846 34.1252C20.1846 45.9247 29.7642 55.5241 41.5486 55.526C53.4373 55.526 62.996 45.9951 63.0017 34.129C63.0074 22.2629 53.4562 12.5988 41.6472 12.574ZM51.2116 24.7541C50.5269 25.8522 49.901 26.9862 49.3366 28.1512C49.0598 28.707 48.8437 28.6213 48.4475 28.3073C46.5516 26.8038 44.415 25.8656 41.9732 25.7095C41.0287 25.6322 40.0789 25.7687 39.194 26.1092C38.3825 26.4346 37.8271 27.0113 37.7304 27.9267C37.6337 28.8421 38.0318 29.5234 38.7674 30.0201C39.994 30.8499 41.4215 31.1506 42.815 31.5426C44.3013 31.9537 45.78 32.3743 47.1754 33.0499C49.748 34.2984 51.1206 36.3252 51.1433 39.2085C51.168 42.2231 50.021 44.6153 47.3517 46.1511C46.6198 46.5898 45.8212 46.9049 44.9876 47.0837C44.5136 47.175 44.3184 47.3634 44.3733 47.8297C44.3771 47.8613 44.3771 47.8933 44.3733 47.9249C44.2937 48.6328 44.7108 49.5787 44.1743 49.9917C43.7307 50.3324 42.8472 50.104 42.1533 50.1116C41.2699 50.1211 40.3864 50.0907 39.4992 50.123C39.029 50.1401 38.8281 50.0355 38.8243 49.5083C38.8243 48.7585 39.156 47.8164 38.6688 47.3102C38.2404 46.8648 37.3285 46.9048 36.6422 46.6935C35.0799 46.2044 33.5956 45.493 32.2344 44.5811C31.7756 44.2804 31.6069 44.0272 31.9557 43.4658C32.6344 42.3677 33.2221 41.2106 33.8174 40.0611C34.0828 39.5492 34.2743 39.4902 34.7881 39.8594C37.1427 41.5589 39.7058 42.6722 42.705 42.3886C43.2078 42.3422 43.698 42.2042 44.1515 41.9814C45.8085 41.1687 45.9753 39.2351 44.4757 38.1522C43.325 37.3225 41.9505 37.0446 40.6196 36.6697C39.0461 36.2282 37.4669 35.8095 35.9862 35.0863C33.5217 33.8854 32.1567 31.9404 32.0657 29.1866C31.969 26.2367 32.97 23.7969 35.5635 22.1792C36.3614 21.6696 37.2406 21.3014 38.1626 21.0906C38.6252 20.9897 38.8508 20.8261 38.8641 20.2875C38.8811 19.551 38.4849 18.5632 39.0537 18.1407C39.5352 17.7944 40.4547 18.057 41.1808 18.0513H41.6528C42.3789 18.0513 43.105 18.0703 43.8311 18.0513C44.2501 18.0361 44.3658 18.2016 44.3752 18.6013C44.3923 19.3625 44.0548 20.3141 44.5117 20.8032C44.9686 21.2923 45.9014 21.2657 46.6218 21.4903C48.1216 21.9712 49.5505 22.6515 50.8703 23.5133C51.4068 23.8444 51.6211 24.1185 51.2116 24.7618V24.7541Z" fill="url(#paint0_linear_350_792)"/>
<path d="M41.8086 57.3492C41.1223 57.3758 40.2237 56.9533 39.8142 57.3891C39.3725 57.8554 39.636 58.7803 39.6928 59.4921C39.7649 60.3828 39.4407 60.5731 38.5952 60.5712C27.2354 60.542 15.875 60.542 4.51401 60.5712C3.59643 60.5712 3.45803 60.2667 3.45993 59.4521C3.48142 42.5066 3.48142 25.561 3.45993 8.61546C3.45993 7.77998 3.64951 7.57254 4.48936 7.57634C15.8832 7.60933 27.2759 7.61631 38.6672 7.59728C38.8251 7.60584 38.9833 7.60584 39.1412 7.59728C39.5488 7.5497 39.7099 7.71147 39.6834 8.13016C39.6549 8.79435 39.7118 9.46236 39.6682 10.1246C39.6322 10.6823 39.7459 10.9278 40.3791 10.8612C41.1022 10.7936 41.8299 10.7898 42.5536 10.8497C43.1224 10.8916 43.2286 10.6956 43.221 10.1722C43.1925 8.26909 43.221 6.36595 43.2115 4.46281C43.2115 1.6081 41.6114 -0.0114746 38.7696 -0.0114746H4.39647C1.58496 -0.0114746 0.00195312 1.57003 0.00195312 4.38478C0.00195312 15.5664 0.00195312 26.7473 0.00195312 37.9276V71.577C0.00195312 74.4108 1.57169 75.998 4.37371 75.998H38.834C41.5621 75.998 43.1944 74.3651 43.2039 71.6437C43.2039 67.3299 43.2039 63.0224 43.2039 58.7213C43.2058 57.313 43.2039 57.2959 41.8086 57.3492ZM13.1191 2.66434C18.7598 2.66434 24.3993 2.66434 30.0374 2.66434C31.01 2.66434 31.5806 3.09445 31.5901 3.80622C31.5996 4.518 31.0365 4.93288 30.0545 4.93478C27.2183 4.93478 24.3822 4.93478 21.5461 4.93478C18.7415 4.93478 15.9376 4.93478 13.1343 4.93478C12.1238 4.93478 11.5968 4.55416 11.5911 3.81764C11.5854 3.08113 12.139 2.66434 13.1191 2.66434ZM21.5536 72.9797C20.6004 72.9766 19.6696 72.6895 18.8791 72.1548C18.0886 71.62 17.4741 70.8617 17.1134 69.9759C16.7527 69.0902 16.6621 68.1169 16.8531 67.1794C17.0441 66.2419 17.5081 65.3824 18.1863 64.71C18.8644 64.0375 19.7262 63.5823 20.6623 63.402C21.5985 63.2218 22.5669 63.3246 23.4447 63.6975C24.3226 64.0704 25.0704 64.6965 25.5934 65.4966C26.1164 66.2966 26.3909 67.2345 26.3823 68.1914C26.3798 68.8244 26.2528 69.4508 26.0085 70.0345C25.7643 70.6181 25.4076 71.1476 24.9589 71.5925C24.5103 72.0374 23.9785 72.389 23.3941 72.6271C22.8097 72.8651 22.1843 72.9849 21.5536 72.9797Z" fill="url(#paint1_linear_350_792)"/>
</g>
<defs>
<linearGradient id="paint0_linear_350_792" x1="41.5931" y1="12.574" x2="41.5931" y2="55.526" gradientUnits="userSpaceOnUse">
<stop stop-color="#F04B7E"/>
<stop offset="1" stop-color="#F858C6"/>
</linearGradient>
<linearGradient id="paint1_linear_350_792" x1="21.6116" y1="-0.0114746" x2="21.6116" y2="75.998" gradientUnits="userSpaceOnUse">
<stop stop-color="#F04B7E"/>
<stop offset="1" stop-color="#F858C6"/>
</linearGradient>
<clipPath id="clip0_350_792">
<rect width="63" height="76" fill="white"/>
</clipPath>
</defs>
</svg>
