<svg width="46" height="38" viewBox="0 0 46 38" fill="none" xmlns="http://www.w3.org/2000/svg">
<path d="M46 0.0212953C43.9977 1.45178 41.7808 2.54587 39.4345 3.26143C38.1753 1.79492 36.5017 0.755498 34.6402 0.283738C32.7786 -0.188021 30.8189 -0.0693531 29.0262 0.623693C27.2334 1.31674 25.694 2.55072 24.6162 4.15875C23.5385 5.76678 22.9743 7.67127 23 9.61464V11.7324C19.3255 11.8289 15.6845 11.0035 12.4012 9.32969C9.11792 7.65591 6.2943 5.18568 4.18182 2.13903C4.18182 2.13903 -4.18182 21.1987 14.6364 29.6696C10.3302 32.6301 5.20042 34.1146 0 33.9051C18.8182 44.4938 41.8182 33.9051 41.8182 9.55111C41.8163 8.96122 41.7603 8.37279 41.6509 7.79339C43.7849 5.66187 45.2908 2.9707 46 0.0212953Z" fill="url(#paint0_linear_53_448)"/>
<defs>
<linearGradient id="paint0_linear_53_448" x1="23" y1="0" x2="23" y2="38" gradientUnits="userSpaceOnUse">
<stop stop-color="#F04B7E"/>
<stop offset="1" stop-color="#F858C6"/>
</linearGradient>
</defs>
</svg>
